<?xml version="1.0" encoding="iso-8859-1"?>
<!-- Generator: Adobe Illustrator 19.0.0, SVG Export Plug-In . SVG Version: 6.00 Build 0)  -->
<svg version="1.1" id="Capa_1" xmlns="http://www.w3.org/2000/svg" xmlns:xlink="http://www.w3.org/1999/xlink" x="0px" y="0px"
	 viewBox="0 0 512.006 512.006" style="enable-background:new 0 0 512.006 512.006;" xml:space="preserve">
<g>
	<path style="fill:#FFDA44;" d="M440.991,91.045l-26.085,26.085c18.542,13.396,34.814,29.668,48.21,48.21l26.085-26.085
		L440.991,91.045z"/>
	<path style="fill:#FFDA44;" d="M290.132,469.302L290.132,469.302c98.963,0,179.188-80.225,179.188-179.188l0,0
		c0-98.963-80.225-179.188-179.188-179.188l0,0c-98.963,0-179.188,80.225-179.188,179.188l0,0
		C110.944,389.077,191.169,469.302,290.132,469.302z M273.066,341.311l118.605-118.605L273.066,341.311l-56.803-56.803
		L273.066,341.311z"/>
</g>
<g>
	<path style="fill:#231F20;" d="M290.132,477.835c103.673,0,187.721-84.048,187.721-187.721s-84.048-187.721-187.721-187.721
		s-187.721,84.048-187.721,187.721C102.531,393.744,186.502,477.715,290.132,477.835z M281.599,119.894v25.163
		c0,4.71,3.823,8.533,8.533,8.533c4.71,0,8.533-3.823,8.533-8.533v-25.163c87.384,4.446,157.242,74.295,161.687,161.687h-33.696
		c-4.71,0-8.533,3.823-8.533,8.533c0,4.71,3.823,8.533,8.533,8.533h33.696c-4.446,87.393-74.295,157.242-161.687,161.687v-25.163
		c0-4.71-3.823-8.533-8.533-8.533c-4.71,0-8.533,3.823-8.533,8.533v25.163c-87.393-4.446-157.242-74.295-161.687-161.687h25.163
		c4.71,0,8.533-3.823,8.533-8.533c0-4.71-3.823-8.533-8.533-8.533h-25.163C124.357,194.189,194.207,124.339,281.599,119.894z"/>
	<path style="fill:#231F20;" d="M474.167,166.389l21.067-21.067c3.328-3.328,3.328-8.738,0-12.065l-48.21-48.21
		c-3.328-3.328-8.738-3.328-12.065,0l-21.102,21.033c-34.131-23.047-74.039-36.068-115.192-37.604v-51.41h59.729
		c4.71,0,8.533-3.823,8.533-8.533S363.104,0,358.394,0H221.87c-4.71,0-8.533,3.823-8.533,8.533s3.823,8.533,8.533,8.533h59.729
		v51.487c-76.104,2.901-145.373,44.686-183.454,110.636h-46.93c-4.71,0-8.533,3.823-8.533,8.533c0,4.71,3.823,8.533,8.533,8.533
		h51.197c0.222,0,0.41-0.111,0.631-0.128c3.072,0.043,5.93-1.596,7.449-4.266c54.285-99.219,178.727-135.645,277.946-81.351
		s135.645,178.727,81.351,277.946s-178.727,135.645-277.946,81.351c-34.336-18.789-62.571-47.016-81.351-81.351
		c-1.51-2.679-4.352-4.335-7.432-4.309c-0.222,0-0.418-0.128-0.648-0.128H51.215c-4.71,0-8.533,3.823-8.533,8.533
		s3.823,8.533,8.533,8.533h46.93c61.231,106.071,196.859,142.412,302.922,81.181s142.412-196.859,81.181-302.922
		C479.704,174.93,477.008,170.613,474.167,166.389z M427.783,116.353l13.209-13.209l36.145,36.145l-13.209,13.209
		c-10.632-13.396-22.757-25.539-36.145-36.179V116.353z"/>
	<path style="fill:#231F20;" d="M85.346,290.114c0-4.71-3.823-8.533-8.533-8.533H8.551c-4.71,0-8.533,3.823-8.533,8.533
		c0,4.71,3.823,8.533,8.533,8.533h68.262C81.523,298.647,85.346,294.824,85.346,290.114z"/>
	<path style="fill:#231F20;" d="M25.616,247.45h59.729c4.71,0,8.533-3.823,8.533-8.533s-3.823-8.533-8.533-8.533H25.616
		c-4.71,0-8.533,3.823-8.533,8.533S20.906,247.45,25.616,247.45z"/>
	<path style="fill:#231F20;" d="M93.878,341.311c0-4.71-3.823-8.533-8.533-8.533H25.616c-4.71,0-8.533,3.823-8.533,8.533
		s3.823,8.533,8.533,8.533h59.729C90.056,349.843,93.878,346.021,93.878,341.311z"/>
	<path style="fill:#231F20;" d="M267.034,347.343c3.328,3.328,8.738,3.328,12.065,0l118.605-118.605
		c3.277-3.387,3.183-8.789-0.213-12.065c-3.311-3.191-8.55-3.191-11.852,0L273.066,329.245l-50.77-50.77
		c-3.387-3.277-8.789-3.183-12.065,0.213c-3.191,3.311-3.191,8.55,0,11.852L267.034,347.343z"/>
</g>
<g>
</g>
<g>
</g>
<g>
</g>
<g>
</g>
<g>
</g>
<g>
</g>
<g>
</g>
<g>
</g>
<g>
</g>
<g>
</g>
<g>
</g>
<g>
</g>
<g>
</g>
<g>
</g>
<g>
</g>
</svg>
